<svg width="120" height="71" viewBox="0 0 120 71" fill="none" xmlns="http://www.w3.org/2000/svg">
<path d="M30.966 70.536C25.014 70.536 19.734 69.16 15.126 66.408C10.582 63.592 6.998 59.56 4.374 54.312C1.814 49 0.534 42.696 0.534 35.4C0.534 28.104 1.814 21.832 4.374 16.584C6.998 11.272 10.582 7.24 15.126 4.488C19.734 1.672 25.014 0.263998 30.966 0.263998C36.918 0.263998 42.166 1.672 46.71 4.488C51.318 7.24 54.902 11.272 57.462 16.584C60.086 21.832 61.398 28.104 61.398 35.4C61.398 42.696 60.086 49 57.462 54.312C54.902 59.56 51.318 63.592 46.71 66.408C42.166 69.16 36.918 70.536 30.966 70.536ZM30.966 52.392C36.086 52.392 38.646 46.728 38.646 35.4C38.646 24.072 36.086 18.408 30.966 18.408C25.846 18.408 23.286 24.072 23.286 35.4C23.286 46.728 25.846 52.392 30.966 52.392ZM103.793 28.392C108.977 29.672 112.945 32.008 115.697 35.4C118.513 38.728 119.921 42.76 119.921 47.496C119.921 51.528 118.801 55.304 116.561 58.824C114.385 62.28 110.993 65.096 106.385 67.272C101.777 69.448 96.0493 70.536 89.2013 70.536C84.4653 70.536 79.7293 70.024 74.9933 69C70.3213 67.976 66.2253 66.472 62.7052 64.488L70.3853 47.784C73.1373 49.384 76.0813 50.6 79.2173 51.432C82.4173 52.264 85.4893 52.68 88.4333 52.68C91.0573 52.68 93.1693 52.232 94.7693 51.336C96.3693 50.44 97.1693 49.16 97.1693 47.496C97.1693 44.424 94.5133 42.888 89.2013 42.888H80.2733V28.968L90.1613 18.888H66.1613V1.8H116.273V15.72L103.793 28.392Z" fill="#EFF5F8"/>
</svg>
