<svg width="15" height="14" viewBox="0 0 15 14" fill="none" xmlns="http://www.w3.org/2000/svg">
<path d="M13.3929 0.616455H1.60714C0.719531 0.616455 0 1.22419 0 1.97389V11.9284C0 12.6782 0.719531 13.2859 1.60714 13.2859H13.3929C14.2805 13.2859 15 12.6782 15 11.9284V1.97389C15 1.22419 14.2805 0.616455 13.3929 0.616455ZM13.3929 11.9284H1.60714V1.97389H13.3929V11.9284ZM12.1921 5.0925L6.4134 9.93414C6.25587 10.0661 6.00147 10.0653 5.84521 9.93222L2.80567 7.34415C2.64941 7.21109 2.65041 6.99622 2.80798 6.86421L3.56866 6.22689C3.72619 6.09491 3.98059 6.09576 4.13685 6.22884L6.13882 7.93348L10.8716 3.96817C11.0291 3.83619 11.2835 3.83704 11.4398 3.97009L12.1943 4.61256C12.3506 4.74564 12.3496 4.96052 12.1921 5.0925Z" fill="#333333"/>
</svg>
